<svg id="Logo_fip" xmlns="http://www.w3.org/2000/svg" xmlns:xlink="http://www.w3.org/1999/xlink" viewBox="0 0 250 100"><defs><style>.cls-1,.cls-11,.cls-12,.cls-3{fill:none;}.cls-13,.cls-14,.cls-2,.cls-8{fill:#fff;}.cls-12,.cls-3,.cls-8{stroke:#d2a10c;}.cls-11,.cls-12,.cls-13,.cls-14,.cls-3,.cls-4,.cls-5,.cls-8,.cls-9{stroke-miterlimit:10;}.cls-3,.cls-8{stroke-width:1.31px;}.cls-10,.cls-4,.cls-5{fill:#233775;}.cls-11,.cls-13,.cls-14,.cls-4,.cls-5,.cls-9{stroke:#233775;}.cls-4{stroke-width:2.27px;}.cls-5{stroke-width:0.51px;}.cls-6{fill:url(#rectangles);}.cls-7{fill:#d2a10c;}.cls-9{fill:#717070;stroke-width:0.28px;}.cls-11{stroke-width:0.45px;}.cls-12{stroke-width:0.5px;}.cls-13{stroke-width:1.3px;}.cls-14{stroke-width:2.3px;}</style><pattern id="rectangles" data-name="rectangles" width="25" height="14" patternUnits="userSpaceOnUse" viewBox="0 0 25 14"><rect class="cls-1" width="25" height="14"/><path class="cls-2" d="M9.75,2.22l-.84-.1a.44.44,0,0,1-.39-.49L8.61.75a.45.45,0,0,1,.5-.4L10,.44a.46.46,0,0,1,.4.5l-.1.88A.46.46,0,0,1,9.75,2.22Z"/><path class="cls-2" d="M11.92,2.22l-.84-.1a.44.44,0,0,1-.39-.49l.1-.88a.44.44,0,0,1,.49-.4l.84.09a.46.46,0,0,1,.4.5l-.1.88A.46.46,0,0,1,11.92,2.22Z"/><path class="cls-2" d="M13.92,2.22l-.84-.1a.45.45,0,0,1-.4-.49l.1-.88a.45.45,0,0,1,.5-.4l.84.09a.45.45,0,0,1,.39.5l-.09.88A.46.46,0,0,1,13.92,2.22Z"/><path class="cls-2" d="M16,2.22l-.83-.1a.44.44,0,0,1-.4-.49l.1-.88a.44.44,0,0,1,.49-.4l.84.09a.45.45,0,0,1,.4.5l-.1.88A.46.46,0,0,1,16,2.22Z"/><path class="cls-2" d="M1.41,2.22l-.84-.1a.44.44,0,0,1-.39-.49L.27.75a.45.45,0,0,1,.5-.4l.84.09a.46.46,0,0,1,.4.5l-.1.88A.46.46,0,0,1,1.41,2.22Z"/><path class="cls-2" d="M3.58,2.22l-.84-.1a.44.44,0,0,1-.39-.49L2.44.75a.45.45,0,0,1,.5-.4l.84.09a.46.46,0,0,1,.4.5l-.1.88A.46.46,0,0,1,3.58,2.22Z"/><path class="cls-2" d="M5.58,2.22l-.84-.1a.45.45,0,0,1-.4-.49l.1-.88a.45.45,0,0,1,.5-.4l.84.09a.45.45,0,0,1,.39.5l-.09.88A.46.46,0,0,1,5.58,2.22Z"/><path class="cls-2" d="M7.64,2.22l-.83-.1a.44.44,0,0,1-.4-.49l.1-.88A.44.44,0,0,1,7,.35l.84.09a.45.45,0,0,1,.4.5l-.1.88A.46.46,0,0,1,7.64,2.22Z"/><path class="cls-2" d="M18,2.22l-.84-.1a.44.44,0,0,1-.4-.49l.1-.88a.45.45,0,0,1,.5-.4l.83.09a.45.45,0,0,1,.4.5l-.1.88A.45.45,0,0,1,18,2.22Z"/><path class="cls-2" d="M20.17,2.22l-.84-.1a.44.44,0,0,1-.4-.49L19,.75a.45.45,0,0,1,.5-.4l.83.09a.45.45,0,0,1,.4.5l-.1.88A.45.45,0,0,1,20.17,2.22Z"/><path class="cls-2" d="M22.16,2.22l-.83-.1a.44.44,0,0,1-.4-.49L21,.75a.44.44,0,0,1,.49-.4l.84.09a.45.45,0,0,1,.4.5l-.1.88A.46.46,0,0,1,22.16,2.22Z"/><path class="cls-2" d="M24.23,2.22l-.84-.1a.45.45,0,0,1-.4-.49l.1-.88a.45.45,0,0,1,.5-.4l.84.09a.45.45,0,0,1,.39.5l-.09.88A.46.46,0,0,1,24.23,2.22Z"/><path class="cls-2" d="M9.75,5l-.84-.09a.45.45,0,0,1-.39-.5l.09-.88a.45.45,0,0,1,.5-.4l.84.1a.45.45,0,0,1,.4.49l-.1.88A.45.45,0,0,1,9.75,5Z"/><path class="cls-2" d="M11.92,5l-.84-.09a.45.45,0,0,1-.39-.5l.1-.88a.44.44,0,0,1,.49-.4l.84.1a.45.45,0,0,1,.4.49l-.1.88A.45.45,0,0,1,11.92,5Z"/><path class="cls-2" d="M13.92,5l-.84-.09a.46.46,0,0,1-.4-.5l.1-.88a.45.45,0,0,1,.5-.4l.84.1a.44.44,0,0,1,.39.49l-.09.88A.45.45,0,0,1,13.92,5Z"/><path class="cls-2" d="M16,5l-.83-.09a.45.45,0,0,1-.4-.5l.1-.88a.44.44,0,0,1,.49-.4l.84.1a.44.44,0,0,1,.4.49l-.1.88A.45.45,0,0,1,16,5Z"/><path class="cls-2" d="M1.41,5,.57,4.87a.45.45,0,0,1-.39-.5l.09-.88a.45.45,0,0,1,.5-.4l.84.1a.45.45,0,0,1,.4.49l-.1.88A.45.45,0,0,1,1.41,5Z"/><path class="cls-2" d="M3.58,5l-.84-.09a.45.45,0,0,1-.39-.5l.09-.88a.45.45,0,0,1,.5-.4l.84.1a.45.45,0,0,1,.4.49l-.1.88A.45.45,0,0,1,3.58,5Z"/><path class="cls-2" d="M5.58,5l-.84-.09a.46.46,0,0,1-.4-.5l.1-.88a.45.45,0,0,1,.5-.4l.84.1a.44.44,0,0,1,.39.49l-.09.88A.45.45,0,0,1,5.58,5Z"/><path class="cls-2" d="M7.64,5l-.83-.09a.45.45,0,0,1-.4-.5l.1-.88A.44.44,0,0,1,7,3.09l.84.1a.44.44,0,0,1,.4.49l-.1.88A.45.45,0,0,1,7.64,5Z"/><path class="cls-2" d="M18,5l-.84-.09a.45.45,0,0,1-.4-.5l.1-.88a.45.45,0,0,1,.5-.4l.83.1a.44.44,0,0,1,.4.49l-.1.88A.44.44,0,0,1,18,5Z"/><path class="cls-2" d="M20.17,5l-.84-.09a.45.45,0,0,1-.4-.5l.1-.88a.45.45,0,0,1,.5-.4l.83.1a.44.44,0,0,1,.4.49l-.1.88A.44.44,0,0,1,20.17,5Z"/><path class="cls-2" d="M22.16,5l-.83-.09a.45.45,0,0,1-.4-.5l.1-.88a.44.44,0,0,1,.49-.4l.84.1a.44.44,0,0,1,.4.49l-.1.88A.45.45,0,0,1,22.16,5Z"/><path class="cls-2" d="M24.23,5l-.84-.09a.46.46,0,0,1-.4-.5l.1-.88a.45.45,0,0,1,.5-.4l.84.1a.44.44,0,0,1,.39.49l-.09.88A.45.45,0,0,1,24.23,5Z"/><path class="cls-2" d="M9.75,7.7l-.84-.09a.45.45,0,0,1-.39-.5l.09-.88a.47.47,0,0,1,.5-.4l.84.1a.46.46,0,0,1,.4.5l-.1.88A.45.45,0,0,1,9.75,7.7Z"/><path class="cls-2" d="M11.92,7.7l-.84-.09a.45.45,0,0,1-.39-.5l.1-.88a.46.46,0,0,1,.49-.4l.84.1a.46.46,0,0,1,.4.5l-.1.88A.45.45,0,0,1,11.92,7.7Z"/><path class="cls-2" d="M13.92,7.7l-.84-.09a.46.46,0,0,1-.4-.5l.1-.88a.47.47,0,0,1,.5-.4l.84.1a.45.45,0,0,1,.39.5l-.09.88A.45.45,0,0,1,13.92,7.7Z"/><path class="cls-2" d="M16,7.7l-.83-.09a.45.45,0,0,1-.4-.5l.1-.88a.46.46,0,0,1,.49-.4l.84.1a.45.45,0,0,1,.4.5l-.1.88A.45.45,0,0,1,16,7.7Z"/><path class="cls-2" d="M1.41,7.7.57,7.61a.45.45,0,0,1-.39-.5l.09-.88a.47.47,0,0,1,.5-.4l.84.1a.46.46,0,0,1,.4.5l-.1.88A.45.45,0,0,1,1.41,7.7Z"/><path class="cls-2" d="M3.58,7.7l-.84-.09a.45.45,0,0,1-.39-.5l.09-.88a.47.47,0,0,1,.5-.4l.84.1a.46.46,0,0,1,.4.5l-.1.88A.45.45,0,0,1,3.58,7.7Z"/><path class="cls-2" d="M5.58,7.7l-.84-.09a.46.46,0,0,1-.4-.5l.1-.88a.47.47,0,0,1,.5-.4l.84.1a.45.45,0,0,1,.39.5l-.09.88A.45.45,0,0,1,5.58,7.7Z"/><path class="cls-2" d="M7.64,7.7l-.83-.09a.45.45,0,0,1-.4-.5l.1-.88A.46.46,0,0,1,7,5.83l.84.1a.45.45,0,0,1,.4.5l-.1.88A.45.45,0,0,1,7.64,7.7Z"/><path class="cls-2" d="M18,7.7l-.84-.09a.45.45,0,0,1-.4-.5l.1-.88a.47.47,0,0,1,.5-.4l.83.1a.45.45,0,0,1,.4.5l-.1.88A.44.44,0,0,1,18,7.7Z"/><path class="cls-2" d="M20.17,7.7l-.84-.09a.45.45,0,0,1-.4-.5l.1-.88a.47.47,0,0,1,.5-.4l.83.1a.45.45,0,0,1,.4.5l-.1.88A.44.44,0,0,1,20.17,7.7Z"/><path class="cls-2" d="M22.16,7.7l-.83-.09a.45.45,0,0,1-.4-.5l.1-.88a.46.46,0,0,1,.49-.4l.84.1a.45.45,0,0,1,.4.5l-.1.88A.45.45,0,0,1,22.16,7.7Z"/><path class="cls-2" d="M24.23,7.7l-.84-.09a.46.46,0,0,1-.4-.5l.1-.88a.47.47,0,0,1,.5-.4l.84.1a.45.45,0,0,1,.39.5l-.09.88A.45.45,0,0,1,24.23,7.7Z"/><path class="cls-2" d="M9.75,10.68l-.84-.1a.44.44,0,0,1-.39-.49l.09-.88a.45.45,0,0,1,.5-.4L10,8.9a.46.46,0,0,1,.4.5l-.1.88A.46.46,0,0,1,9.75,10.68Z"/><path class="cls-2" d="M11.92,10.68l-.84-.1a.44.44,0,0,1-.39-.49l.1-.88a.44.44,0,0,1,.49-.4l.84.09a.46.46,0,0,1,.4.5l-.1.88A.46.46,0,0,1,11.92,10.68Z"/><path class="cls-2" d="M13.92,10.68l-.84-.1a.45.45,0,0,1-.4-.49l.1-.88a.45.45,0,0,1,.5-.4l.84.09a.45.45,0,0,1,.39.5l-.09.88A.46.46,0,0,1,13.92,10.68Z"/><path class="cls-2" d="M16,10.68l-.83-.1a.44.44,0,0,1-.4-.49l.1-.88a.44.44,0,0,1,.49-.4l.84.09a.45.45,0,0,1,.4.5l-.1.88A.46.46,0,0,1,16,10.68Z"/><path class="cls-2" d="M1.41,10.68l-.84-.1a.44.44,0,0,1-.39-.49l.09-.88a.45.45,0,0,1,.5-.4l.84.09a.46.46,0,0,1,.4.5l-.1.88A.46.46,0,0,1,1.41,10.68Z"/><path class="cls-2" d="M3.58,10.68l-.84-.1a.44.44,0,0,1-.39-.49l.09-.88a.45.45,0,0,1,.5-.4l.84.09a.46.46,0,0,1,.4.5l-.1.88A.46.46,0,0,1,3.58,10.68Z"/><path class="cls-2" d="M5.58,10.68l-.84-.1a.45.45,0,0,1-.4-.49l.1-.88a.45.45,0,0,1,.5-.4l.84.09a.45.45,0,0,1,.39.5l-.09.88A.46.46,0,0,1,5.58,10.68Z"/><path class="cls-2" d="M7.64,10.68l-.83-.1a.44.44,0,0,1-.4-.49l.1-.88A.44.44,0,0,1,7,8.81l.84.09a.45.45,0,0,1,.4.5l-.1.88A.46.46,0,0,1,7.64,10.68Z"/><path class="cls-2" d="M18,10.68l-.84-.1a.44.44,0,0,1-.4-.49l.1-.88a.45.45,0,0,1,.5-.4l.83.09a.45.45,0,0,1,.4.5l-.1.88A.45.45,0,0,1,18,10.68Z"/><path class="cls-2" d="M20.17,10.68l-.84-.1a.44.44,0,0,1-.4-.49l.1-.88a.45.45,0,0,1,.5-.4l.83.09a.45.45,0,0,1,.4.5l-.1.88A.45.45,0,0,1,20.17,10.68Z"/><path class="cls-2" d="M22.16,10.68l-.83-.1a.44.44,0,0,1-.4-.49l.1-.88a.44.44,0,0,1,.49-.4l.84.09a.45.45,0,0,1,.4.5l-.1.88A.46.46,0,0,1,22.16,10.68Z"/><path class="cls-2" d="M24.23,10.68l-.84-.1a.45.45,0,0,1-.4-.49l.1-.88a.45.45,0,0,1,.5-.4l.84.09a.45.45,0,0,1,.39.5l-.09.88A.46.46,0,0,1,24.23,10.68Z"/><path class="cls-2" d="M9.75,13.65l-.84-.09a.45.45,0,0,1-.39-.5l.09-.88a.46.46,0,0,1,.5-.4l.84.1a.45.45,0,0,1,.4.49l-.1.88A.45.45,0,0,1,9.75,13.65Z"/><path class="cls-2" d="M11.92,13.65l-.84-.09a.45.45,0,0,1-.39-.5l.1-.88a.45.45,0,0,1,.49-.4l.84.1a.45.45,0,0,1,.4.49l-.1.88A.45.45,0,0,1,11.92,13.65Z"/><path class="cls-2" d="M13.92,13.65l-.84-.09a.46.46,0,0,1-.4-.5l.1-.88a.46.46,0,0,1,.5-.4l.84.1a.44.44,0,0,1,.39.49l-.09.88A.45.45,0,0,1,13.92,13.65Z"/><path class="cls-2" d="M16,13.65l-.83-.09a.45.45,0,0,1-.4-.5l.1-.88a.45.45,0,0,1,.49-.4l.84.1a.44.44,0,0,1,.4.49l-.1.88A.45.45,0,0,1,16,13.65Z"/><path class="cls-2" d="M1.41,13.65l-.84-.09a.45.45,0,0,1-.39-.5l.09-.88a.46.46,0,0,1,.5-.4l.84.1a.45.45,0,0,1,.4.49l-.1.88A.45.45,0,0,1,1.41,13.65Z"/><path class="cls-2" d="M3.58,13.65l-.84-.09a.45.45,0,0,1-.39-.5l.09-.88a.46.46,0,0,1,.5-.4l.84.1a.45.45,0,0,1,.4.49l-.1.88A.45.45,0,0,1,3.58,13.65Z"/><path class="cls-2" d="M5.58,13.65l-.84-.09a.46.46,0,0,1-.4-.5l.1-.88a.46.46,0,0,1,.5-.4l.84.1a.44.44,0,0,1,.39.49l-.09.88A.45.45,0,0,1,5.58,13.65Z"/><path class="cls-2" d="M7.64,13.65l-.83-.09a.45.45,0,0,1-.4-.5l.1-.88a.45.45,0,0,1,.49-.4l.84.1a.44.44,0,0,1,.4.49l-.1.88A.45.45,0,0,1,7.64,13.65Z"/><path class="cls-2" d="M18,13.65l-.84-.09a.45.45,0,0,1-.4-.5l.1-.88a.46.46,0,0,1,.5-.4l.83.1a.44.44,0,0,1,.4.49l-.1.88A.44.44,0,0,1,18,13.65Z"/><path class="cls-2" d="M20.17,13.65l-.84-.09a.45.45,0,0,1-.4-.5l.1-.88a.46.46,0,0,1,.5-.4l.83.1a.44.44,0,0,1,.4.49l-.1.88A.44.44,0,0,1,20.17,13.65Z"/><path class="cls-2" d="M22.16,13.65l-.83-.09a.45.45,0,0,1-.4-.5l.1-.88a.45.45,0,0,1,.49-.4l.84.1a.44.44,0,0,1,.4.49l-.1.88A.45.45,0,0,1,22.16,13.65Z"/><path class="cls-2" d="M24.23,13.65l-.84-.09a.46.46,0,0,1-.4-.5l.1-.88a.46.46,0,0,1,.5-.4l.84.1a.44.44,0,0,1,.39.49l-.09.88A.45.45,0,0,1,24.23,13.65Z"/></pattern></defs><rect id="background" class="cls-2" width="250" height="100"/><g id="shape2"><path class="cls-3" d="M74.45,79.79V21.3H24V79.79s-.15,7.38,6.33,7.59,10-.09,10.86,0c0,0,5.68-.21,8,4.81,0,0,2.17-4.61,6.59-4.81,3.91,0,11.28-.21,11.28-.21S74.45,87.44,74.45,79.79Z"/><line class="cls-4" x1="38.83" y1="47.27" x2="46.61" y2="78.89"/><path class="cls-5" d="M33.23,23.23S23.65,25.07,26,38C28.68,48.65,37.3,48.34,38.8,48S49,44.57,46.45,33.27C43.62,20.68,33.23,23.23,33.23,23.23Z"/><path class="cls-6" d="M33.52,24.41S25,26,27.09,37.7c2.46,9.67,10.13,9.41,11.46,9.1s9.06-3.06,6.77-13.28C42.76,22.14,33.52,24.41,33.52,24.41Z"/><path class="cls-7" d="M34,54s.23-2.45,3.13-1.33,3.47,2,3.49,2.24-.61.77-5.39,0C35.26,54.89,34,54.63,34,54Z"/><path class="cls-7" d="M34.63,56.15h6.23s1,0,1,.87a.78.78,0,0,1-.88.82H34.63s-.33.07-.33-.84S34.63,56.15,34.63,56.15Z"/><path class="cls-7" d="M34.87,58.58H41.1s1,0,1,.86a.78.78,0,0,1-.88.81H34.87s-.32.07-.32-.84S34.87,58.58,34.87,58.58Z"/><path class="cls-7" d="M35.66,61.31h3.21s.87.08.87.38A3.26,3.26,0,0,1,37.07,63C35.71,62.94,34.52,61.31,35.66,61.31Z"/><path class="cls-7" d="M43.89,63.8h3.79s.72.33.8-3.56.2-3.61-1-4.09S45.56,53,45.56,53s-2.34-3.45-4.67-3.56S38.47,49,38.47,49s-1.08-.64-1.33,0,.19,1.27,1.14,2A10.74,10.74,0,0,0,41,52.17a2.13,2.13,0,0,1,1.27,1.65,5,5,0,0,0,1.46,2.44A6.37,6.37,0,0,1,43.87,58c-.06.89.06,2.67-.45,2.8s-2.28,1.14-2.28,2.09S42.33,63.8,43.89,63.8Z"/><path class="cls-7" d="M50,57.59H71.51s.7,25.5,0,26.33-7.4.84-10.38.84S52.59,84.28,50,86.39Z"/></g><g id="shape_1" data-name="shape 1"><path class="cls-8" d="M110.08,71.93V13.44H59.64V71.93S59.5,79.31,66,79.52s10-.09,10.86,0c0,0,5.68-.2,8,4.81,0,0,2.16-4.6,6.59-4.81,3.91,0,11.28-.21,11.28-.21S110.08,79.58,110.08,71.93Z"/><path class="cls-7" d="M85.93,48.88h4V79.42s-3.85,1.64-4,2.85Z"/><path class="cls-7" d="M103.35,48.88h3.83V78.05a31.06,31.06,0,0,1-3.83,1.24Z"/><path class="cls-9" d="M76.74,58.66,79.35,71.6l1.42-.3s-2-12.58-2.1-12.9Z"/><path class="cls-9" d="M79.14,70.61a6.63,6.63,0,0,1,1.56.2"/><path class="cls-9" d="M77,59.77a10.66,10.66,0,0,1,2,.34"/><path class="cls-9" d="M78.27,66.59a9.06,9.06,0,0,1,1.84.3"/><path class="cls-9" d="M77.93,65.16a11.37,11.37,0,0,1,2,.34"/><path class="cls-9" d="M77.69,63.76a10,10,0,0,1,1.9.32"/><path class="cls-9" d="M77.46,62.48a10.33,10.33,0,0,1,2,.34"/><path class="cls-9" d="M77.27,61.22a10.66,10.66,0,0,1,2,.34"/><path class="cls-9" d="M78.93,69.45a7,7,0,0,1,1.59.24"/><path class="cls-9" d="M78.76,68.07a6.65,6.65,0,0,1,1.59.22"/><path class="cls-10" d="M66.6,18.32A4.14,4.14,0,0,1,70,15.13c2.88-.4,4,1.4,4.21,2,.69,2.57,1,3.74,1.92,11.52s2.61,29.55,2.61,29.55-.53,2-1.93.63c0,0-3-9.61-4-13.63C72,41.73,65.94,21.21,66.6,18.32Z"/><path class="cls-11" d="M66.6,18.32A4.14,4.14,0,0,1,70,15.13c2.88-.4,4,1.4,4.21,2,.69,2.57,1,3.74,1.92,11.52s2.61,29.55,2.61,29.55-.53,2-1.93.63c0,0-3-9.61-4-13.63C72,41.73,65.94,21.21,66.6,18.32Z"/><path class="cls-7" d="M80.1,71.25s1.91-.32,2.23.72c.28,1.23-1.75,1.61-1.75,1.61s-1.74.42-2.07-.66C78.21,71.52,80.1,71.25,80.1,71.25Z"/><path class="cls-7" d="M80.27,56.53h3.78s.72.33.81-3.56.2-3.61-1-4.09-1.89-3.15-1.89-3.15-2.34-3.45-4.67-3.56-2.42-.44-2.42-.44-1.08-.64-1.34,0,.19,1.27,1.15,2a10.74,10.74,0,0,0,2.73,1.21,2.13,2.13,0,0,1,1.27,1.65A5,5,0,0,0,80.12,49a6.37,6.37,0,0,1,.13,1.69c-.07.89.06,2.67-.45,2.79s-2.28,1.15-2.28,2.1S78.71,56.53,80.27,56.53Z"/><path class="cls-7" d="M70.41,46.72s.23-2.45,3.13-1.33S77,47.4,77,47.63s-.6.77-5.38,0C71.64,47.62,70.33,47.36,70.41,46.72Z"/><path class="cls-7" d="M71,48.88h6.23s1,0,1,.87a.77.77,0,0,1-.88.81H71s-.32.07-.32-.85S71,48.88,71,48.88Z"/><path class="cls-7" d="M71.25,51.31h6.23s1,0,1,.86a.78.78,0,0,1-.88.81H71.25s-.33.07-.33-.84S71.25,51.31,71.25,51.31Z"/><path class="cls-7" d="M72,54h3.21s.87.08.87.38a3.27,3.27,0,0,1-2.68,1.28C72.09,55.67,70.89,54,72,54Z"/><g id="pattern"><line class="cls-12" x1="90.76" y1="49.54" x2="92.79" y2="51.43"/><line class="cls-12" x1="92.83" y1="49.58" x2="90.72" y2="51.39"/><line class="cls-12" x1="100.46" y1="49.54" x2="102.49" y2="51.43"/><line class="cls-12" x1="102.53" y1="49.58" x2="100.42" y2="51.39"/><line class="cls-12" x1="97.18" y1="49.54" x2="99.21" y2="51.43"/><line class="cls-12" x1="99.25" y1="49.58" x2="97.14" y2="51.39"/><line class="cls-12" x1="93.97" y1="49.54" x2="96" y2="51.43"/><line class="cls-12" x1="96.04" y1="49.58" x2="93.93" y2="51.39"/><line class="cls-12" x1="90.76" y1="53.33" x2="92.79" y2="55.23"/><line class="cls-12" x1="92.83" y1="53.37" x2="90.72" y2="55.18"/><line class="cls-12" x1="100.46" y1="53.33" x2="102.49" y2="55.23"/><line class="cls-12" x1="102.53" y1="53.37" x2="100.42" y2="55.18"/><line class="cls-12" x1="97.18" y1="53.33" x2="99.21" y2="55.23"/><line class="cls-12" x1="99.25" y1="53.37" x2="97.14" y2="55.18"/><line class="cls-12" x1="93.97" y1="53.33" x2="96" y2="55.23"/><line class="cls-12" x1="96.04" y1="53.37" x2="93.93" y2="55.18"/><line class="cls-12" x1="90.76" y1="57.13" x2="92.79" y2="59.02"/><line class="cls-12" x1="92.83" y1="57.17" x2="90.72" y2="58.98"/><line class="cls-12" x1="100.46" y1="57.13" x2="102.49" y2="59.02"/><line class="cls-12" x1="102.53" y1="57.17" x2="100.42" y2="58.98"/><line class="cls-12" x1="97.18" y1="57.13" x2="99.21" y2="59.02"/><line class="cls-12" x1="99.25" y1="57.17" x2="97.14" y2="58.98"/><line class="cls-12" x1="93.97" y1="57.13" x2="96" y2="59.02"/><line class="cls-12" x1="96.04" y1="57.17" x2="93.93" y2="58.98"/><line class="cls-12" x1="90.76" y1="60.92" x2="92.79" y2="62.81"/><line class="cls-12" x1="92.83" y1="60.96" x2="90.72" y2="62.77"/><line class="cls-12" x1="100.46" y1="60.92" x2="102.49" y2="62.81"/><line class="cls-12" x1="102.53" y1="60.96" x2="100.42" y2="62.77"/><line class="cls-12" x1="97.18" y1="60.92" x2="99.21" y2="62.81"/><line class="cls-12" x1="99.25" y1="60.96" x2="97.14" y2="62.77"/><line class="cls-12" x1="93.97" y1="60.92" x2="96" y2="62.81"/><line class="cls-12" x1="96.04" y1="60.96" x2="93.93" y2="62.77"/><line class="cls-12" x1="90.76" y1="64.71" x2="92.79" y2="66.61"/><line class="cls-12" x1="92.83" y1="64.76" x2="90.72" y2="66.57"/><line class="cls-12" x1="100.46" y1="64.71" x2="102.49" y2="66.61"/><line class="cls-12" x1="102.53" y1="64.76" x2="100.42" y2="66.57"/><line class="cls-12" x1="97.18" y1="64.71" x2="99.21" y2="66.61"/><line class="cls-12" x1="99.25" y1="64.76" x2="97.14" y2="66.57"/><line class="cls-12" x1="93.97" y1="64.71" x2="96" y2="66.61"/><line class="cls-12" x1="96.04" y1="64.76" x2="93.93" y2="66.57"/><line class="cls-12" x1="90.76" y1="68.51" x2="92.79" y2="70.4"/><line class="cls-12" x1="92.83" y1="68.55" x2="90.72" y2="70.36"/><line class="cls-12" x1="100.46" y1="68.51" x2="102.49" y2="70.4"/><line class="cls-12" x1="102.53" y1="68.55" x2="100.42" y2="70.36"/><line class="cls-12" x1="97.18" y1="68.51" x2="99.21" y2="70.4"/><line class="cls-12" x1="99.25" y1="68.55" x2="97.14" y2="70.36"/><line class="cls-12" x1="93.97" y1="68.51" x2="96" y2="70.4"/><line class="cls-12" x1="96.04" y1="68.55" x2="93.93" y2="70.36"/><line class="cls-12" x1="90.76" y1="72.3" x2="92.79" y2="74.19"/><line class="cls-12" x1="92.83" y1="72.34" x2="90.72" y2="74.15"/><line class="cls-12" x1="100.46" y1="72.3" x2="102.49" y2="74.19"/><line class="cls-12" x1="102.53" y1="72.34" x2="100.42" y2="74.15"/><line class="cls-12" x1="97.18" y1="72.3" x2="99.21" y2="74.19"/><line class="cls-12" x1="99.25" y1="72.34" x2="97.14" y2="74.15"/><line class="cls-12" x1="93.97" y1="72.3" x2="96" y2="74.19"/><line class="cls-12" x1="96.04" y1="72.34" x2="93.93" y2="74.15"/><line class="cls-12" x1="90.76" y1="76.09" x2="92.79" y2="77.99"/><line class="cls-12" x1="92.83" y1="76.14" x2="90.72" y2="77.95"/><line class="cls-12" x1="100.46" y1="76.09" x2="102.49" y2="77.99"/><line class="cls-12" x1="102.53" y1="76.14" x2="100.42" y2="77.95"/><line class="cls-12" x1="97.18" y1="76.09" x2="99.21" y2="77.99"/><line class="cls-12" x1="99.25" y1="76.14" x2="97.14" y2="77.95"/><line class="cls-12" x1="93.97" y1="76.09" x2="96" y2="77.99"/><line class="cls-12" x1="96.04" y1="76.14" x2="93.93" y2="77.95"/></g></g><g id="text"><path class="cls-13" d="M96.39,76.92c.91,0,1.52-.29,1.52-1v0c0-.71-1-1.45-1.83-1.94C94.94,73.38,94,72.87,94,71.88v-.07c0-1.82,1.46-2.21,2.63-2.21h.26a2.69,2.69,0,0,1,2.1,1c-.06.46-.8.94-1.4.94,0-.84-.53-1.49-1.13-1.49h0a1.16,1.16,0,0,0-1.31,1.24v0c0,1.38,4.1,1.69,4.1,4.33,0,1.33-1,1.93-2.79,1.93-1.21,0-2.6-.29-2.64-1.13s.51-1,1.43-1.16a.92.92,0,0,0-.18.55C95,76.48,95.8,76.9,96.39,76.92Z"/><path class="cls-13" d="M101.52,69.6h.11a1.22,1.22,0,0,1,.92,1.23v.08a3.05,3.05,0,0,1,2.34-1.31c1.93,0,3.35,1.25,3.35,3.71s-1.6,4.23-3.78,4.23a3.12,3.12,0,0,1-1.91-.75v3.63c0,.12,0,.25,0,.35,0,.59.16.94.68,1a1.93,1.93,0,0,1-1.46.8h0c-.43,0-.68-.44-.7-1.31V71.17c-.06-.64-.26-1-.65-1h0A1.26,1.26,0,0,1,101.52,69.6Zm1,5.58A1.91,1.91,0,0,0,104.4,77c1.37,0,2.28-.78,2.28-3s-.89-3.5-2.51-3.5c-.84,0-1.62.74-1.62,1.2Z"/><path class="cls-13" d="M117.72,73.4a3.91,3.91,0,0,1-4,4.14,3.77,3.77,0,0,1-4-4,3.69,3.69,0,0,1,4-3.94C116,69.6,117.72,70.87,117.72,73.4Zm-6.46-.3c0,2.07,1.39,3.78,2.83,3.78,1.25,0,2.09-1.27,2.09-2.81,0-2-1.4-3.82-2.83-3.82C112.1,70.25,111.26,71.56,111.26,73.1Z"/><path class="cls-13" d="M119.9,75.68V71.54c0-.88-.19-1.13-.56-1.34a1.62,1.62,0,0,1,1.21-.6h.07c.36,0,.82.31.82,1.29a3.83,3.83,0,0,1,2.34-1.29h.08a1.33,1.33,0,0,0,.94,1c-.28.43-.59.91-1.11.91S123,71,123,70.39h-.06c-.59,0-1.41,1.15-1.45,2.27v3.07c0,.75.22,1.12.73,1.19a1.69,1.69,0,0,1-1.17.62C120.31,77.54,119.9,76.9,119.9,75.68Z"/><path class="cls-13" d="M129.38,69.86v.6h-1.6v4.39c0,1.66.33,2.07.9,2.07a2.07,2.07,0,0,1-1.29.62c-.7,0-1.15-.83-1.15-2.41V69.05c0-.89-.08-1.29-.49-1.33A1.76,1.76,0,0,1,127,67H127c.41,0,.74.41.74,1.4v1.48Z"/><path class="cls-13" d="M133.22,76.92c.92,0,1.52-.29,1.52-1v0c0-.71-1-1.45-1.83-1.94-1.13-.57-2.13-1.08-2.13-2.07v-.07c0-1.82,1.47-2.21,2.64-2.21h.25a2.7,2.7,0,0,1,2.11,1c-.06.46-.8.94-1.41.94,0-.84-.53-1.49-1.13-1.49h0a1.15,1.15,0,0,0-1.3,1.24v0c0,1.38,4.09,1.69,4.09,4.33,0,1.33-1,1.93-2.79,1.93-1.21,0-2.59-.29-2.63-1.13s.51-1,1.42-1.16a1,1,0,0,0-.17.55C131.84,76.48,132.64,76.9,133.22,76.92Z"/><path class="cls-14" d="M105,53.91H93V53.5c1.62-.39,2.06-1.14,2.06-3.19V36a2.46,2.46,0,0,0-2.09-2.77l0-.42h9.37c6.61,0,10.06,1.85,10.06,5.46,0,2.68-2.16,4.19-4.07,4.76,4,1.1,5.28,3,5.28,5.09C113.61,51.26,110.9,53.91,105,53.91Zm-3.23-19.18h-1.58c-.15,0-.26.15-.26.48v6.88h2.91c3,0,4.59-1.46,4.59-3.67C107.41,36,105.53,34.73,101.75,34.73Zm3.78,10a20,20,0,0,0-5.62-.63V51.2c0,.69.56.81,1.77.81,4.63,0,6.5-1.26,6.5-3.85C108.18,46.53,107.26,45.45,105.53,44.77Z"/><path class="cls-14" d="M116.74,50.9V36.55c0-1.58-.29-2.3-1.17-2.3h-.11l3.26-1.75A2.4,2.4,0,0,1,120.93,35V51c0,1,.29,1.46,1.14,1.58v.24a4.15,4.15,0,0,1-2.83,1.52C118.25,54.33,116.74,53.73,116.74,50.9Z"/><path class="cls-14" d="M135.25,52.21c-1.06,1-2.68,2.12-4,2.12h-.33c-2.5,0-5.36-1.34-5.36-4.32V44.44c0-1.28-.33-1.61-1.18-2A5.76,5.76,0,0,1,127.83,41a2.85,2.85,0,0,1,2,2.47V50.1a2,2,0,0,0,2.27,2h.33c.67,0,2.39-.95,2.39-2v-5.6a1.78,1.78,0,0,0-1.43-2.06A8.14,8.14,0,0,1,137.09,41c1.21.56,2,1.13,2,2.47v7.62c0,1,.3,1.43,1.29,1.55v.24a4.66,4.66,0,0,1-2.83,1.49C137.09,54.33,135.69,54.21,135.25,52.21Z"/><path class="cls-14" d="M151.64,51.74a14.28,14.28,0,0,0,3.71-.54l.91.92v.21a11.09,11.09,0,0,1-6.46,2c-3.56,0-7-2.68-7-5.93V48c0-4.25,3-7,8.15-7H151c2.13,0,4.37.86,4.37,2.8,0,2.35-3.89,4.05-8.52,4.73C147.12,50.19,148.77,51.74,151.64,51.74Zm-1.11-9.15c-2.57,0-3.67,2.15-3.7,4,4-1.07,4.59-1.31,4.59-3.39A.83.83,0,0,0,150.53,42.59Z"/><path class="cls-14" d="M183.7,39.35c-2,0-2.75-1.25-2.93-3,.55,0,.95-.21.95-.42,0-.92-1.47-1.28-2.68-1.28h-.4c-1.84,0-3.6.83-3.6,2.32s1.47,2.83,4.59,4.29c4.74,2.21,7.31,4.65,7.31,7.18,0,3.84-4.23,5.87-8.67,5.87-3.82,0-8.56-.51-8.56-3.13,0-1.73,1.73-2.83,3.42-2.83h.18a2.82,2.82,0,0,1,2.24,2c-.59.06-1,.41-1,.8v.12c0,.63,2.1,1,3.86,1,2.13,0,3.71-1.07,3.71-3s-2.21-3.54-5.47-5.06c-4-1.85-5.88-3.72-5.88-6.25,0-3.34,4.26-5.6,7.71-5.6s8.08,1.34,8.08,4.32C186.53,38.48,185.65,39.35,183.7,39.35Z"/><path class="cls-14" d="M194.47,43.07v6.55c.07,2.36.73,3,1.87,3a5.08,5.08,0,0,1-3.12,1.7c-1.62,0-2.94-1.46-2.94-4.29V40.39a2.07,2.07,0,0,0,0-.48c0-.86-.37-1.31-1.14-1.4a5.73,5.73,0,0,1,3.34-1.84h.15c1,0,1.8.74,1.8,2.65V41.4h2.83v1.67Z"/><path class="cls-14" d="M207.69,51.74a14.22,14.22,0,0,0,3.71-.54l.92.92v.21a11.11,11.11,0,0,1-6.46,2c-3.57,0-7-2.68-7-5.93V48c0-4.25,3-7,8.16-7h.07c2.13,0,4.37.86,4.37,2.8,0,2.35-3.89,4.05-8.52,4.73C203.17,50.19,204.83,51.74,207.69,51.74Zm-1.1-9.15c-2.57,0-3.67,2.15-3.71,4,4-1.07,4.59-1.31,4.59-3.39A.82.82,0,0,0,206.59,42.59Z"/><path class="cls-14" d="M222.86,51.74a14.16,14.16,0,0,0,3.71-.54l.92.92v.21a11.09,11.09,0,0,1-6.46,2c-3.56,0-7-2.68-7-5.93V48c0-4.25,3-7,8.16-7h.07c2.13,0,4.37.86,4.37,2.8,0,2.35-3.89,4.05-8.52,4.73C218.35,50.19,220,51.74,222.86,51.74Zm-1.1-9.15c-2.57,0-3.67,2.15-3.71,4,4-1.07,4.59-1.31,4.59-3.39A.82.82,0,0,0,221.76,42.59Z"/><path class="cls-14" d="M230.36,50.9V36.55c0-1.58-.29-2.3-1.18-2.3h-.11l3.27-1.75A2.4,2.4,0,0,1,234.55,35V51c0,1,.29,1.46,1.14,1.58v.24a4.15,4.15,0,0,1-2.83,1.52C231.87,54.33,230.36,53.73,230.36,50.9Z"/><path class="cls-10" d="M157.07,25.63c-.13-.31-.27-.62-.4-.92s-.26-.59-.4-.89l-.42-.87-.42-.87a1.31,1.31,0,0,0-.27-.39,1.25,1.25,0,0,0-.4-.18.65.65,0,0,1-.06-.21,1.62,1.62,0,0,1,0-.21l.5,0h1.37l.61,0c0,.07,0,.15,0,.23a.64.64,0,0,1,0,.2,1.33,1.33,0,0,0-.47.1c-.09,0-.14.1-.13.18a.71.71,0,0,0,.09.3c.18.38.37.79.57,1.24s.37.85.53,1.22h-.15l1.64-3.45.23,0h.25c.26.48.55,1,.86,1.66s.61,1.23.92,1.84h-.17l.75-1.82a1.9,1.9,0,0,0,.17-.73.44.44,0,0,0-.18-.37,1,1,0,0,0-.47-.15.9.9,0,0,1-.08-.21,1.5,1.5,0,0,1,0-.22l.51,0h1.13l.47,0a1.52,1.52,0,0,1,0,.23.64.64,0,0,1-.08.2.7.7,0,0,0-.3.14,1,1,0,0,0-.25.35c-.09.17-.2.41-.33.73l-1.2,2.81a.43.43,0,0,1-.16.05l-.18,0h-.21c-.19-.39-.38-.79-.59-1.2l-.63-1.21c-.21-.4-.41-.78-.61-1.13l.37-.16-1.77,3.61a.35.35,0,0,1-.13.05l-.17,0Z"/><path class="cls-10" d="M164.15,25.57a1.65,1.65,0,0,1,0-.21.78.78,0,0,1,0-.21.89.89,0,0,0,.65-.18.91.91,0,0,0,.18-.66V22.4A1.08,1.08,0,0,0,165,22a.39.39,0,0,0-.24-.23,1.76,1.76,0,0,0-.6-.08.58.58,0,0,1,0-.19.35.35,0,0,1,.08-.16,4.13,4.13,0,0,0,.5-.05l.64-.12a2.14,2.14,0,0,0,.46-.16.34.34,0,0,1,.18.11.41.41,0,0,1,.08.27v2.9a1,1,0,0,0,.16.66.7.7,0,0,0,.54.18,1.32,1.32,0,0,1,.05.23,1.42,1.42,0,0,1,0,.19l-.43,0h-1.86Zm1.33-5.63a.76.76,0,0,1-.5-.17.49.49,0,0,1-.21-.4A.5.5,0,0,1,165,19a.86.86,0,0,1,1,0,.5.5,0,0,1,.2.42.52.52,0,0,1-.21.4A.8.8,0,0,1,165.48,19.94Z"/><path class="cls-10" d="M169.75,25.63a1.56,1.56,0,0,1-1-.3,1.2,1.2,0,0,1-.34-.95V21.76l-.37-.08-.49,0a.69.69,0,0,1,0-.22.8.8,0,0,1,.08-.21h.75V19.94a2.64,2.64,0,0,0,.88-.39.24.24,0,0,1,.16.11,1.55,1.55,0,0,1,0,.39v1.16H171a.78.78,0,0,1,0,.21,1.19,1.19,0,0,1-.08.22l-.79,0-.66.08v2.42a1.28,1.28,0,0,0,.09.52.58.58,0,0,0,.24.31.7.7,0,0,0,.37.09,1.41,1.41,0,0,0,.43-.05,1.29,1.29,0,0,0,.35-.18.5.5,0,0,1,.18.32,1.57,1.57,0,0,1-.58.31A2.59,2.59,0,0,1,169.75,25.63Z"/><path class="cls-10" d="M172.75,20a1,1,0,0,0-.06-.37.38.38,0,0,0-.24-.24,1.81,1.81,0,0,0-.6-.07.64.64,0,0,1,0-.2.4.4,0,0,1,.08-.16,4.26,4.26,0,0,0,.51-.05,6.38,6.38,0,0,0,.63-.12,1.7,1.7,0,0,0,.46-.16.36.36,0,0,1,.18.12.41.41,0,0,1,.08.27v1.34h-1.07Zm4.6,4.33a1,1,0,0,0,.17.67.71.71,0,0,0,.53.17,1.05,1.05,0,0,1,0,.19,1.69,1.69,0,0,1,0,.23l-.6,0h-1.69l-.43,0c0-.08,0-.16,0-.23a1.05,1.05,0,0,1,0-.19.91.91,0,0,0,.63-.18.87.87,0,0,0,.19-.66V22.84a1.14,1.14,0,0,0-.31-.93,1.24,1.24,0,0,0-.79-.24,1.38,1.38,0,0,0-.62.15,1.3,1.3,0,0,0-.52.52,1.82,1.82,0,0,0-.21.94v1A.91.91,0,0,0,174,25a.89.89,0,0,0,.64.18.59.59,0,0,1,.05.19,1.69,1.69,0,0,1,0,.23l-.4,0h-2l-.41,0a1.64,1.64,0,0,1,0-.23.58.58,0,0,1,0-.19.69.69,0,0,0,.83-.84V22.4l1.07-.95a2.35,2.35,0,0,1,0,.26,1.25,1.25,0,0,1-.07.31l.07-.11a.6.6,0,0,1,.11-.14,2.11,2.11,0,0,1,.64-.46,2.55,2.55,0,0,1,1.92-.08,1.33,1.33,0,0,1,.63.49,1.6,1.6,0,0,1,.24.93ZM172.75,20h1.07v1.47l-1.07,1.09Z"/><path class="cls-10" d="M183.35,25.63a1.56,1.56,0,0,1-1-.3,1.17,1.17,0,0,1-.34-.95V21.76l-.37-.08-.49,0a.69.69,0,0,1,0-.22.8.8,0,0,1,.08-.21H182V19.94a2.64,2.64,0,0,0,.88-.39.24.24,0,0,1,.16.11,1.55,1.55,0,0,1,0,.39v1.16h1.55a.78.78,0,0,1,0,.21,1.19,1.19,0,0,1-.08.22l-.79,0-.66.08v2.42a1.28,1.28,0,0,0,.09.52.58.58,0,0,0,.24.31.7.7,0,0,0,.37.09,1.41,1.41,0,0,0,.43-.05,1.29,1.29,0,0,0,.35-.18.5.5,0,0,1,.18.32,1.57,1.57,0,0,1-.58.31A2.59,2.59,0,0,1,183.35,25.63Z"/><path class="cls-10" d="M187.92,25.63a3,3,0,0,1-1.41-.31,2.12,2.12,0,0,1-.84-.84,2.47,2.47,0,0,1-.28-1.15,2.25,2.25,0,0,1,1.15-2,3,3,0,0,1,2.57-.05,1.79,1.79,0,0,1,.7.72,2.8,2.8,0,0,1,.28,1,.67.67,0,0,1-.18.33h-1.53l-1,0-1,0v-.49h2.53a1.72,1.72,0,0,0-.29-1,.93.93,0,0,0-.81-.4,1.29,1.29,0,0,0-.56.14,1.06,1.06,0,0,0-.45.5,2.24,2.24,0,0,0-.18,1,2.92,2.92,0,0,0,.15.93,1.55,1.55,0,0,0,.52.74,1.68,1.68,0,0,0,1.07.3,2.38,2.38,0,0,0,.78-.14,2.11,2.11,0,0,0,.67-.42.46.46,0,0,1,.18.13.35.35,0,0,1,.11.16,2.28,2.28,0,0,1-.93.62A3.46,3.46,0,0,1,187.92,25.63Z"/><path class="cls-10" d="M194.63,25.63a.41.41,0,0,1-.21-.18.76.76,0,0,1-.08-.39,1.83,1.83,0,0,1,0-.21.78.78,0,0,1,0-.22h0a1.11,1.11,0,0,1-.16.33,1.44,1.44,0,0,1-.33.32,2,2,0,0,1-.51.24,2.78,2.78,0,0,1-.76.09,1.92,1.92,0,0,1-1.14-.28.86.86,0,0,1-.39-.75,1,1,0,0,1,.22-.64,1.7,1.7,0,0,1,.57-.44,3.63,3.63,0,0,1,.76-.29c.28-.07.54-.12.81-.16l.69-.1c0-.26,0-.47,0-.62a1.34,1.34,0,0,0-.07-.35.73.73,0,0,0-.16-.23,1.19,1.19,0,0,0-.33-.22,1.3,1.3,0,0,0-.41-.07.92.92,0,0,0-.62.2,1.1,1.1,0,0,0-.32.46,1.52,1.52,0,0,0-.11.46h-.33a1.19,1.19,0,0,1-.29-.05,3.3,3.3,0,0,0,0-.55,4.86,4.86,0,0,0-.07-.51,6.2,6.2,0,0,1,1-.32,5.35,5.35,0,0,1,1-.11,2.39,2.39,0,0,1,.75.1,1.52,1.52,0,0,1,.51.26,1.19,1.19,0,0,1,.41.64,4.76,4.76,0,0,1,.09,1v1.06a1.63,1.63,0,0,0,.05.43.36.36,0,0,0,.21.24,1.62,1.62,0,0,0,.48.08,1.7,1.7,0,0,1,0,.22.77.77,0,0,1-.06.23,4.32,4.32,0,0,0-.66.09A3,3,0,0,0,194.63,25.63ZM193,25.08a1.2,1.2,0,0,0,.53-.14,1.14,1.14,0,0,0,.46-.44,1.42,1.42,0,0,0,.19-.79v-.36c-.21,0-.42,0-.64.08a2.87,2.87,0,0,0-.61.16,1.29,1.29,0,0,0-.47.29.72.72,0,0,0-.18.51.59.59,0,0,0,.22.52A.8.8,0,0,0,193,25.08Z"/><path class="cls-10" d="M201.29,25.63a1.54,1.54,0,0,1-1-.3,1.17,1.17,0,0,1-.34-.95V21.76l-.37-.08-.49,0a.69.69,0,0,1,0-.22.8.8,0,0,1,.08-.21h.75V19.94a2.9,2.9,0,0,0,.47-.16,2.6,2.6,0,0,0,.41-.23.24.24,0,0,1,.16.11,1.55,1.55,0,0,1,0,.39v1.16h1.55a1.65,1.65,0,0,1,0,.21,1.28,1.28,0,0,1-.09.22l-.78,0-.66.08v2.42a1.28,1.28,0,0,0,.09.52.62.62,0,0,0,.23.31.75.75,0,0,0,.37.09,1.44,1.44,0,0,0,.44-.05,1.29,1.29,0,0,0,.35-.18.61.61,0,0,1,.18.32,1.62,1.62,0,0,1-.59.31A2.48,2.48,0,0,1,201.29,25.63Z"/><path class="cls-10" d="M204.3,23.47V22.4a1,1,0,0,0-.06-.37.44.44,0,0,0-.25-.23,2,2,0,0,0-.59-.09.58.58,0,0,1,0-.19.35.35,0,0,1,.08-.16c.24,0,.53-.06.85-.12a4.77,4.77,0,0,0,.75-.21.36.36,0,0,1,.18.12.47.47,0,0,1,.08.3Zm1.07.65a1.39,1.39,0,0,0,.11.64.53.53,0,0,0,.34.3,2.25,2.25,0,0,0,.61.09,1.05,1.05,0,0,1,0,.19c0,.07,0,.15,0,.23l-.42,0h-2l-.7,0a1.64,1.64,0,0,1,0-.23.58.58,0,0,1,0-.19,1.6,1.6,0,0,0,.5-.09.41.41,0,0,0,.25-.25,1.3,1.3,0,0,0,.08-.5v-1h1.07Zm0-1.41v.76H204.3V22.4l1.07-.95a2.6,2.6,0,0,1-.07.6c-.05.18-.09.35-.13.52Zm-.26-.08.2-.44a1.54,1.54,0,0,1,.15-.29,2.34,2.34,0,0,1,.62-.56,1.54,1.54,0,0,1,.83-.23,1.48,1.48,0,0,1,.82.24c0,.1,0,.22-.06.35s0,.27,0,.41v.38l-.3.05a2.34,2.34,0,0,1-.38,0,.91.91,0,0,0-.19-.61.61.61,0,0,0-.4-.14.72.72,0,0,0-.45.19,1.55,1.55,0,0,0-.39.5,1.3,1.3,0,0,0-.17.68Z"/><path class="cls-10" d="M211,25.63a2.94,2.94,0,0,1-1.41-.31,2.12,2.12,0,0,1-.84-.84,2.36,2.36,0,0,1-.28-1.15,2.25,2.25,0,0,1,1.15-2,2.53,2.53,0,0,1,1.32-.32,2.48,2.48,0,0,1,1.24.27,1.67,1.67,0,0,1,.7.72,2.81,2.81,0,0,1,.29,1,.88.88,0,0,1-.18.33h-1.53l-1,0-1,0v-.49h2.53a1.72,1.72,0,0,0-.29-1,.93.93,0,0,0-.81-.4,1.25,1.25,0,0,0-.56.14,1,1,0,0,0-.45.5,2.24,2.24,0,0,0-.18,1,2.92,2.92,0,0,0,.15.93,1.55,1.55,0,0,0,.52.74,1.68,1.68,0,0,0,1.07.3,2.28,2.28,0,0,0,.77-.14,2.16,2.16,0,0,0,.68-.42.68.68,0,0,1,.18.13.46.46,0,0,1,.11.16,2.24,2.24,0,0,1-.94.62A3.4,3.4,0,0,1,211,25.63Z"/><path class="cls-10" d="M216.57,25.63a2.93,2.93,0,0,1-1.4-.31,2,2,0,0,1-.84-.84,2.37,2.37,0,0,1-.29-1.15,2.23,2.23,0,0,1,1.16-2,2.47,2.47,0,0,1,1.31-.32,2.52,2.52,0,0,1,1.25.27,1.73,1.73,0,0,1,.7.72,2.62,2.62,0,0,1,.28,1,.67.67,0,0,1-.18.33H217l-1,0-1,0v-.49h2.53a1.72,1.72,0,0,0-.28-1,.94.94,0,0,0-.81-.4,1.3,1.3,0,0,0-.57.14,1.06,1.06,0,0,0-.45.5,2.24,2.24,0,0,0-.18,1,2.92,2.92,0,0,0,.15.93,1.57,1.57,0,0,0,.53.74,1.65,1.65,0,0,0,1.06.3,2.33,2.33,0,0,0,.78-.14,2.27,2.27,0,0,0,.68-.42.68.68,0,0,1,.18.13.41.41,0,0,1,.1.16,2.28,2.28,0,0,1-.93.62A3.46,3.46,0,0,1,216.57,25.63Z"/><path class="cls-10" d="M224.72,25.63a3.25,3.25,0,0,1-1.41-.29,2.27,2.27,0,0,1-.95-.8,2.19,2.19,0,0,1-.33-1.21,2.1,2.1,0,0,1,.35-1.18,2.31,2.31,0,0,1,1-.82,3.12,3.12,0,0,1,1.39-.3,3.21,3.21,0,0,1,1.45.29,2.21,2.21,0,0,1,.93.8,2.3,2.3,0,0,1,.32,1.21,2.15,2.15,0,0,1-.34,1.18,2.35,2.35,0,0,1-.94.82A3.16,3.16,0,0,1,224.72,25.63Zm.1-.47a1.21,1.21,0,0,0,1.06-.48,2,2,0,0,0,.35-1.24,2.41,2.41,0,0,0-.22-1,1.76,1.76,0,0,0-.59-.67,1.47,1.47,0,0,0-.81-.24,1.2,1.2,0,0,0-1,.46,1.93,1.93,0,0,0-.34,1.17,2.88,2.88,0,0,0,.2,1.12,1.55,1.55,0,0,0,.56.69A1.5,1.5,0,0,0,224.82,25.16Z"/><path class="cls-10" d="M228.31,25.57c0-.07,0-.13,0-.21a1.6,1.6,0,0,1,.05-.21A.89.89,0,0,0,229,25a.92.92,0,0,0,.17-.66V22.4a1.09,1.09,0,0,0-.05-.38.42.42,0,0,0-.24-.23,1.76,1.76,0,0,0-.6-.08,1.11,1.11,0,0,1,0-.19.51.51,0,0,1,.09-.16,4.13,4.13,0,0,0,.5-.05l.64-.12A1.84,1.84,0,0,0,230,21a.33.33,0,0,1,.19.11.41.41,0,0,1,.08.27v2.9a1,1,0,0,0,.16.66.7.7,0,0,0,.54.18,1.32,1.32,0,0,1,.05.23,1.42,1.42,0,0,1,0,.19l-.43,0h-1.86Zm1.32-5.63a.8.8,0,0,1-.5-.17.51.51,0,0,1-.2-.4.5.5,0,0,1,.22-.42.75.75,0,0,1,.48-.16.77.77,0,0,1,.52.16.5.5,0,0,1,.2.42.52.52,0,0,1-.21.4A.8.8,0,0,1,229.63,19.94Z"/><path class="cls-10" d="M231.86,25.57a1.65,1.65,0,0,1,0-.21.78.78,0,0,1,0-.21.89.89,0,0,0,.65-.18.91.91,0,0,0,.18-.66V20a1,1,0,0,0-.06-.37.38.38,0,0,0-.24-.24,1.81,1.81,0,0,0-.6-.07.64.64,0,0,1,0-.2.4.4,0,0,1,.08-.16,4.26,4.26,0,0,0,.51-.05,6.38,6.38,0,0,0,.63-.12,1.7,1.7,0,0,0,.46-.16.36.36,0,0,1,.18.12.41.41,0,0,1,.08.27v5.31A1,1,0,0,0,234,25a.7.7,0,0,0,.54.18.78.78,0,0,1,0,.23,1.42,1.42,0,0,1,0,.19l-.43,0h-1.86Z"/></g></svg>